HIERARCHY
ROOT Hips
{
	OFFSET -0.001795 -0.223333 0.028219
	CHANNELS 6 Xposition Yposition Zposition Zrotation Yrotation Xrotation 
	JOINT LeftUpLeg
	{
		OFFSET 0.069520 -0.091406 -0.006815
		CHANNELS 3 Zrotation Yrotation Xrotation
		JOINT LeftLeg
		{
			OFFSET 0.034277 -0.375199 -0.004496
			CHANNELS 3 Zrotation Yrotation Xrotation
			JOINT LeftFoot
			{
				OFFSET -0.013596 -0.397961 -0.043693
				CHANNELS 3 Zrotation Yrotation Xrotation
				JOINT LeftToe
				{
					OFFSET 0.026358 -0.055791 0.119288
					CHANNELS 3 Zrotation Yrotation Xrotation
					End Site
					{
						OFFSET 0.000000 0.000000 0.000000
					}
				}
			}
		}
	}
	JOINT RightUpLeg
	{
		OFFSET -0.067670 -0.090522 -0.004320
		CHANNELS 3 Zrotation Yrotation Xrotation
		JOINT RightLeg
		{
			OFFSET -0.038290 -0.382569 -0.008850
			CHANNELS 3 Zrotation Yrotation Xrotation
			JOINT RightFoot
			{
				OFFSET 0.015774 -0.398415 -0.042312
				CHANNELS 3 Zrotation Yrotation Xrotation
				JOINT RightToe
				{
					OFFSET -0.025372 -0.048144 0.123348
					CHANNELS 3 Zrotation Yrotation Xrotation
					End Site
					{
						OFFSET 0.000000 0.000000 0.000000
					}
				}
			}
		}
	}
	JOINT Spine
	{
		OFFSET -0.002533 0.108963 -0.026696
		CHANNELS 3 Zrotation Yrotation Xrotation
		JOINT Spine1
		{
			OFFSET 0.005487 0.135180 0.001092
			CHANNELS 3 Zrotation Yrotation Xrotation
			JOINT Spine2
			{
				OFFSET 0.001457 0.052922 0.025425
				CHANNELS 3 Zrotation Yrotation Xrotation
				JOINT Neck
				{
					OFFSET -0.002778 0.213870 -0.042857
					CHANNELS 3 Zrotation Yrotation Xrotation
					JOINT Head
					{
						OFFSET 0.005152 0.064970 0.051349
						CHANNELS 3 Zrotation Yrotation Xrotation
						End Site
						{
							OFFSET 0.000000 0.000000 0.000000
						}
					}
				}
				JOINT LeftShoulder
				{
					OFFSET 0.078845 0.121749 -0.034090
					CHANNELS 3 Zrotation Yrotation Xrotation
					JOINT LeftArm
					{
						OFFSET 0.090977 0.030469 -0.008868
						CHANNELS 3 Zrotation Yrotation Xrotation
						JOINT LeftForeArm
						{
							OFFSET 0.259612 -0.012772 -0.027456
							CHANNELS 3 Zrotation Yrotation Xrotation
							JOINT LeftHand
							{
								OFFSET 0.249234 0.008986 -0.001171
								CHANNELS 3 Zrotation Yrotation Xrotation
								End Site
								{
									OFFSET 0.000000 0.000000 0.000000
								}
							}
						}
					}
				}
				JOINT RightShoulder
				{
					OFFSET -0.081759 0.118833 -0.038615
					CHANNELS 3 Zrotation Yrotation Xrotation
					JOINT RightArm
					{
						OFFSET -0.096012 0.032551 -0.009143
						CHANNELS 3 Zrotation Yrotation Xrotation
						JOINT RightForeArm
						{
							OFFSET -0.253742 -0.013329 -0.021401
							CHANNELS 3 Zrotation Yrotation Xrotation
							JOINT RightHand
							{
								OFFSET -0.255298 0.007772 -0.005559
								CHANNELS 3 Zrotation Yrotation Xrotation
								End Site
								{
									OFFSET 0.000000 0.000000 0.000000
								}
							}
						}
					}
				}
			}
		}
	}
}
MOTION
Frames: 13
Frame Time: 0.050000
0.000000 0.952093 0.000000 0.054669 -6.848340 2.409876 5.058351 0.175332 3.495535 -3.211406 0.449684 -6.667656 5.299865 12.785748 14.299764 0.000000 0.000000 0.000000 -5.312657 0.183619 1.239831 4.673555 -0.400257 -3.584383 -3.892002 -12.796188 11.304439 0.000000 0.000000 0.000000 6.267058 -0.242759 1.637104 -5.595977 1.869727 -22.513268 -0.891422 8.374016 28.613351 8.616220 -3.197254 -23.372572 0.000000 0.000000 0.000000 -14.515622 -1.734524 -0.566560 -44.538475 -8.525875 -4.369059 4.400595 -17.889386 0.069399 0.000000 0.000000 0.000000 22.070639 -7.680638 -4.721818 50.140180 9.486287 -3.722021 -2.959695 18.401238 0.552749 0.000000 0.000000 0.000000 
0.000020 0.950746 0.000641 -0.100569 -7.278478 2.498394 5.769229 0.201748 4.282874 -3.852593 0.505927 -7.747308 5.421295 12.979099 14.782264 0.000000 0.000000 0.000000 -5.214643 0.209390 0.704630 4.440879 -0.384180 -2.906484 -3.782792 -12.857091 12.237681 0.000000 0.000000 0.000000 6.503273 -0.194082 1.076962 -5.997954 1.966536 -22.411378 -1.056341 8.878091 28.831855 8.522172 -2.991061 -24.045118 0.000000 0.000000 0.000000 -14.865591 -0.997439 -1.002826 -46.870289 -9.765395 -4.135042 4.640713 -17.565398 0.052489 0.000000 0.000000 0.000000 23.464126 -7.966594 -4.993074 51.820719 8.771701 -4.129154 -3.500219 19.994854 0.570910 0.000000 0.000000 0.000000 
-0.000004 0.950564 0.001033 0.093929 -7.005982 2.371743 5.761962 0.164445 3.614071 -4.055206 0.505926 -5.982694 5.465109 13.017486 14.123926 0.000000 0.000000 0.000000 -5.774819 0.227746 0.905220 4.740771 -0.403038 -3.363322 -3.472871 -12.335327 12.486603 0.000000 0.000000 0.000000 6.532669 -0.180546 0.951894 -6.486598 2.096202 -22.636154 -0.904626 8.198847 29.347015 8.811060 -3.404186 -23.257919 0.000000 0.000000 0.000000 -15.480736 -2.014098 -0.432677 -48.259373 -8.306515 -4.836805 5.060956 -18.542945 0.019433 0.000000 0.000000 0.000000 23.812967 -7.466740 -4.856222 53.340129 8.096377 -4.497736 -2.213839 20.021510 0.752675 0.000000 0.000000 0.000000 
-0.000168 0.950426 0.001597 0.245326 -7.414990 2.242276 5.979707 0.194466 4.148549 -4.331182 0.532574 -6.404396 5.283364 12.721141 14.373157 0.000000 0.000000 0.000000 -6.099394 0.241595 1.171695 5.223785 -0.423473 -3.382877 -3.548670 -12.627979 13.035515 0.000000 0.000000 0.000000 6.518798 -0.147339 0.654228 -6.979975 2.223655 -22.571251 -0.721733 8.023871 29.697209 8.551808 -3.368618 -22.979894 0.000000 0.000000 0.000000 -16.219778 -1.252166 -0.783718 -49.564363 -8.185691 -5.030345 3.220430 -19.082922 0.346327 0.000000 0.000000 0.000000 24.860549 -7.352123 -5.035491 53.894860 8.034985 -4.590410 -0.409135 20.240066 1.028864 0.000000 0.000000 0.000000 
-0.000371 0.951267 0.002027 0.153812 -7.138462 2.073916 6.082234 0.185838 4.087482 -4.212384 0.520566 -6.213547 4.819318 12.033338 14.443171 0.000000 0.000000 0.000000 -5.919576 0.214824 1.383841 4.821605 -0.405442 -3.527849 -3.496006 -12.586122 13.366357 0.000000 0.000000 0.000000 6.147651 -0.143233 0.697197 -6.257862 2.045003 -22.312294 -0.931708 7.804545 29.289042 8.454250 -3.421014 -22.203248 0.000000 0.000000 0.000000 -16.859524 -1.295475 -0.830759 -51.190036 -7.433879 -5.417881 2.175043 -19.467969 0.533879 0.000000 0.000000 0.000000 25.076783 -7.118612 -4.937197 55.222450 7.476105 -4.842043 0.029708 20.110276 1.088523 0.000000 0.000000 0.000000 
-0.000541 0.951870 0.002283 0.095691 -7.137324 2.092036 6.144638 0.183923 4.099990 -4.220005 0.521081 -6.279830 4.793769 12.016859 14.657441 0.000000 0.000000 0.000000 -6.055112 0.222528 1.401097 4.983467 -0.414529 -3.499542 -3.234827 -12.140278 13.406794 0.000000 0.000000 0.000000 5.912743 -0.126047 0.544869 -6.163821 2.019009 -22.363721 -0.736915 7.440058 29.481660 8.399097 -3.358045 -22.783585 0.000000 0.000000 0.000000 -17.013324 -1.027666 -0.893151 -52.868922 -6.913125 -5.822189 0.714562 -20.171549 0.834181 0.000000 0.000000 0.000000 24.777204 -6.992460 -4.936730 56.645845 7.238565 -4.990482 1.585904 20.260845 1.332062 0.000000 0.000000 0.000000 
-0.000658 0.952198 0.002336 0.071961 -7.186066 1.981315 6.200402 0.187752 4.160152 -4.385151 0.534050 -6.339528 4.733505 11.953183 14.963583 0.000000 0.000000 0.000000 -5.939875 0.209301 1.530754 4.817120 -0.404773 -3.596263 -3.106399 -11.954645 13.536457 0.000000 0.000000 0.000000 5.826285 -0.131283 0.636997 -5.937177 1.962501 -22.191494 -0.855597 7.318355 29.329091 8.566997 -3.492110 -22.749815 0.000000 0.000000 0.000000 -17.541072 -1.334220 -0.745122 -53.735564 -6.187335 -6.206258 -0.121066 -20.366351 0.996824 0.000000 0.000000 0.000000 25.113293 -6.447442 -4.687367 57.110167 6.693986 -5.252003 2.216563 20.792344 1.469738 0.000000 0.000000 0.000000 
-0.000730 0.952395 0.002325 -0.046066 -7.182029 2.102329 6.212856 0.177504 4.001305 -4.356005 0.531449 -6.305239 4.915859 12.220920 14.843239 0.000000 0.000000 0.000000 -5.851100 0.211824 1.358324 4.858938 -0.408136 -3.419735 -3.100970 -11.875228 13.243361 0.000000 0.000000 0.000000 5.787254 -0.114930 0.441991 -5.801309 1.926697 -22.130747 -0.742852 7.302167 29.504999 8.716569 -3.563081 -22.945554 0.000000 0.000000 0.000000 -17.631185 -1.630502 -0.584722 -54.564465 -5.770137 -6.491228 -0.879766 -20.691604 1.155625 0.000000 0.000000 0.000000 25.184021 -6.349950 -4.632832 57.661225 6.475276 -5.398320 2.845994 20.829467 1.578835 0.000000 0.000000 0.000000 
-0.000776 0.952447 0.002335 -0.094409 -7.183077 2.096232 6.276941 0.178364 4.057498 -4.518938 0.543574 -6.442387 5.007914 12.371401 14.912648 0.000000 0.000000 0.000000 -5.751122 0.201617 1.451938 4.795954 -0.402801 -3.717239 -3.046730 -11.843110 13.502622 0.000000 0.000000 0.000000 5.851479 -0.102378 0.301256 -5.812082 1.932962 -21.945876 -0.689054 7.361971 29.463767 8.724241 -3.586392 -22.747377 0.000000 0.000000 0.000000 -17.636365 -1.853743 -0.483719 -55.138860 -5.614600 -6.608864 -1.401487 -20.642053 1.243342 0.000000 0.000000 0.000000 25.272860 -6.189615 -4.523607 57.755871 6.052973 -5.601405 3.306603 20.745009 1.644617 0.000000 0.000000 0.000000 
-0.000871 0.952573 0.002399 -0.203763 -7.375159 2.074760 6.359683 0.183961 4.145921 -4.506440 0.545005 -6.616194 5.145203 12.554445 14.806314 0.000000 0.000000 0.000000 -5.644645 0.193783 1.536089 4.824346 -0.401458 -3.767676 -2.940788 -11.649119 13.380701 0.000000 0.000000 0.000000 6.013549 -0.083189 0.090361 -5.845740 1.943784 -21.739193 -0.549337 7.632396 29.613776 8.829807 -3.621511 -22.798999 0.000000 0.000000 0.000000 -17.602331 -2.070019 -0.397766 -55.506234 -5.414097 -6.746357 -1.750302 -20.655001 1.303101 0.000000 0.000000 0.000000 25.402121 -6.107907 -4.432656 57.925336 5.859956 -5.726850 3.529295 20.474184 1.659855 0.000000 0.000000 0.000000 
-0.000984 0.952640 0.002483 -0.235454 -7.394729 2.092062 6.480325 0.183755 4.219401 -4.546865 0.548188 -6.739508 5.138655 12.544027 14.816443 0.000000 0.000000 0.000000 -5.610418 0.190376 1.575883 4.828967 -0.400514 -3.890675 -2.906550 -11.632131 13.547711 0.000000 0.000000 0.000000 6.096067 -0.076371 0.009666 -5.837738 1.943390 -21.637014 -0.527953 7.702658 29.507261 8.864356 -3.642322 -22.720192 0.000000 0.000000 0.000000 -17.572018 -2.239591 -0.323935 -55.547359 -5.187649 -6.840100 -2.098784 -20.832208 1.372761 0.000000 0.000000 0.000000 25.396399 -6.075147 -4.393357 58.017779 5.506112 -5.892776 3.759552 20.216715 1.670103 0.000000 0.000000 0.000000 
-0.001127 0.952758 0.002584 -0.280575 -7.521463 2.113878 6.576728 0.186256 4.294980 -4.549232 0.549733 -6.924823 5.138009 12.533509 14.869529 0.000000 0.000000 0.000000 -5.657867 0.194886 1.592930 4.908224 -0.403174 -3.821481 -2.736862 -11.348624 13.542160 0.000000 0.000000 0.000000 6.120095 -0.070181 -0.057316 -5.830319 1.940699 -21.537257 -0.429417 7.913673 29.324788 8.904233 -3.616330 -22.836359 0.000000 0.000000 0.000000 -17.398366 -2.394427 -0.269212 -55.537001 -5.098766 -6.852542 -2.473204 -20.719591 1.420639 0.000000 0.000000 0.000000 25.383211 -6.119905 -4.381310 58.131228 5.269670 -5.995214 3.840257 19.995528 1.662596 0.000000 0.000000 0.000000 
-0.001288 0.952959 0.002677 -0.344507 -7.677980 2.105212 6.712296 0.190559 4.408396 -4.544513 0.551310 -6.952098 4.994011 12.278344 14.690422 0.000000 0.000000 0.000000 -5.623831 0.193222 1.629860 4.938775 -0.402025 -3.891062 -2.720393 -11.382521 13.722018 0.000000 0.000000 0.000000 6.083311 -0.061605 -0.136734 -5.757638 1.916657 -21.606523 -0.304890 7.990338 29.360472 8.891346 -3.624615 -22.750864 0.000000 0.000000 0.000000 -17.479681 -2.500090 -0.213144 -55.181956 -5.121479 -6.803919 -2.790121 -20.660364 1.468865 0.000000 0.000000 0.000000 25.434720 -5.969869 -4.298042 57.993814 5.082561 -6.080681 4.005085 19.891349 1.673845 0.000000 0.000000 0.000000 
